<?xml version="1.0" standalone="no"?>
<!DOCTYPE svg PUBLIC "-//W3C//DTD SVG 20010904//EN"
 "http://www.w3.org/TR/2001/REC-SVG-20010904/DTD/svg10.dtd">
<svg version="1.0" xmlns="http://www.w3.org/2000/svg"
 width="1269.000000pt" height="1269.000000pt" viewBox="0 0 1269.000000 1269.000000"
 preserveAspectRatio="xMidYMid meet">
<metadata>
Created by potrace 1.16, written by Peter Selinger 2001-2019
</metadata>
<g transform="translate(0.000000,1269.000000) scale(0.100000,-0.100000)"
fill="#000000" stroke="none">
<path d="M7606 12674 c-379 -51 -661 -268 -796 -613 -64 -165 -145 -576 -190
-975 -44 -387 -60 -657 -70 -1166 -7 -365 -12 -469 -29 -577 -49 -321 -119
-508 -247 -659 -75 -88 -140 -192 -168 -266 -32 -84 -54 -224 -61 -383 -4 -71
-13 -168 -20 -215 -16 -98 -45 -424 -45 -507 0 -51 3 -58 40 -95 38 -38 43
-40 83 -34 52 8 242 84 357 141 120 60 192 117 295 231 100 110 141 146 330
289 370 280 473 375 533 489 l27 51 0 285 c0 297 -9 413 -50 684 -47 305 -105
501 -230 781 -144 322 -203 517 -212 706 -14 279 54 395 534 920 152 166 202
226 203 247 0 28 20 9 30 -30 37 -144 95 -286 139 -338 l20 -25 1 538 0 537
-187 -1 c-104 -1 -233 -7 -287 -15z"/>
<path d="M10253 8232 l3 -307 36 -100 c66 -181 87 -352 89 -710 0 -162 -4
-238 -15 -290 -16 -76 -57 -204 -88 -275 -34 -76 -39 -100 -23 -107 8 -3 12
-9 9 -14 -3 -5 2 -12 10 -15 9 -3 16 -10 16 -15 0 -10 9 -22 40 -56 8 -9 15
-19 15 -22 0 -3 13 -24 28 -46 186 -261 687 -1003 738 -1092 l24 -42 -25 -26
c-52 -55 -150 -101 -420 -195 l-165 -57 4 -339 c1 -187 4 -340 5 -341 3 -3
444 77 616 112 600 124 988 263 1061 382 28 45 22 120 -22 258 -85 272 -329
864 -544 1321 -31 66 -79 169 -108 229 -72 155 -393 790 -459 910 -122 220
-153 275 -225 395 -114 192 -190 310 -278 427 -83 112 -249 284 -298 308 l-28
14 4 -307z"/>
<path d="M11495 3086 c-366 -39 -730 -139 -920 -254 l-44 -26 -3 -256 -3 -255
-27 -45 c-16 -28 -43 -55 -70 -70 l-43 -25 -1497 -3 -1498 -2 0 -263 0 -262
138 -65 137 -65 120 0 c125 1 250 21 416 70 l79 23 0 -563 0 -564 -22 -4 c-20
-4 -20 -4 4 -6 17 -1 33 7 46 23 l19 24 129 -75 c221 -128 681 -382 730 -403
41 -18 69 -20 289 -20 276 0 281 1 391 82 88 66 220 217 256 295 28 59 30 71
26 144 -4 67 -11 91 -46 161 -54 109 -148 235 -215 286 -131 102 -247 129
-596 142 -134 5 -245 11 -247 13 -2 2 81 9 184 15 986 63 1310 83 1577 97 171
8 355 22 410 31 289 45 641 217 925 453 162 135 267 257 372 433 114 192 165
329 175 465 19 259 -146 410 -498 458 -159 22 -531 28 -694 11z"/>
<path d="M6505 599 c14 -105 108 -323 176 -409 95 -120 235 -145 475 -85 181
46 283 116 378 258 57 87 93 154 85 161 -8 8 -841 106 -1038 122 l-83 7 7 -54z"/>
</g>
</svg>
