<?xml version="1.0" encoding="iso-8859-1"?>
<!-- Generator: Adobe Illustrator 19.0.0, SVG Export Plug-In . SVG Version: 6.00 Build 0)  -->
<svg version="1.1" id="Layer_1" xmlns="http://www.w3.org/2000/svg" xmlns:xlink="http://www.w3.org/1999/xlink" x="0px" y="0px"
	 viewBox="0 0 503.19 503.19" style="enable-background:new 0 0 503.19 503.19;" xml:space="preserve">
<path style="fill:#1E74A5;" d="M458.101,292.8c-4.8-8-19.2-40.8-30.4-66.4c4-14.4,5.6-29.6,5.6-44.8c0-100.8-84-181.6-180-181.6
	s-190.4,109.6-157.6,204.8c14.4,42.4,25.6,73.6,36.8,96.8l-60,100.8c-10.4,20.8,11.2,37.6,32,48l80,41.6
	c20.8,10.4,55.2,19.2,65.6-0.8l42.4-77.6c29.6,12.8,57.6,19.2,80,18.4c23.2-1.6,31.2-25.6,36-60c4.8,0,10.4,0,13.6-4.8
	c4.8-8.8-7.2-21.6-7.2-21.6s20-5.6,15.2-11.2c-4-4-7.2-21.6-8-26.4c7.2,0,16-0.8,24-3.2C465.301,299.2,458.101,292.8,458.101,292.8z
	"/>
<path style="fill:#074568;" d="M458.101,292.8c-4.8-8-24-24.8-35.2-49.6c4-14.4,10.4-45.6,10.4-60.8c0-101.6-82.4-154.4-178.4-154.4
	s-191.2,82.4-158.4,177.6c14.4,42.4,25.6,73.6,36.8,96.8l-60.8,100c-10.4,20.8,11.2,37.6,32,48l80,41.6
	c20.8,10.4,55.2,19.2,65.6-0.8l7.2-102.4c28.8,31.2,92.8,44,115.2,43.2c23.2-1.6,31.2-25.6,36-60c4.8,0,10.4,0,13.6-4.8
	c4.8-8.8-20-17.6-20-17.6s32.8-9.6,28.8-15.2c-4-4-18.4-20.8-19.2-26.4c7.2,0,27.2-1.6,35.2-4
	C465.301,299.2,458.101,292.8,458.101,292.8z"/>
<path style="fill:#FFE000;" d="M302.901,140c0-61.6-58.4-111.2-129.6-111.2c-71.2,0-129.6,50.4-129.6,111.2c0,36,20,68,51.2,88
	l10.4,43.2c0,34.4,28,60.8,61.6,60.8h13.6c34.4,0,61.6-26.4,61.6-60.8l10.4-44C282.901,207.2,302.901,176,302.901,140z"/>
<path style="fill:#FFC200;" d="M302.901,140c0-61.6-58.4-93.6-129.6-93.6s-129.6,32.8-129.6,93.6c0,36,28.8,59.2,59.2,79.2l1.6,52
	c0,34.4,28,60.8,61.6,60.8h13.6c34.4,0,61.6-26.4,61.6-60.8l1.6-52C274.901,198.4,302.901,176,302.901,140z"/>
<path style="fill:#4396BF;" d="M104.501,273.6v35.2c0,37.6,30.4,68.8,68.8,68.8c37.6,0,68.8-30.4,68.8-68.8v-35.2H104.501
	L104.501,273.6z"/>
<path style="fill:#1E74A5;" d="M104.501,308.8c0,37.6,30.4,68.8,68.8,68.8c37.6,0,68.8-30.4,68.8-68.8"/>
<g>
	<path style="fill:#F9F4BD;" d="M173.301,272c-2.4,0-4-1.6-4-4v-89.6c0-0.8-0.8-59.2-36.8-67.2c-7.2-1.6-12,0-16,4
		c-6.4,7.2-6.4,20.8-1.6,34.4c5.6,16,17.6,26.4,32.8,30.4v-20c0-2.4,1.6-4,4-4s4,1.6,4,4v24.8c0,1.6-0.8,2.4-1.6,3.2
		s-2.4,0.8-3.2,0.8c-20-2.4-36.8-16.8-44-36.8c-6.4-16.8-4.8-33.6,3.2-43.2c5.6-6.4,14.4-8.8,24-6.4c43.2,9.6,44,72.8,44,76V268
		C177.301,270.4,175.701,272,173.301,272z"/>
	<path style="fill:#F9F4BD;" d="M173.301,272c2.4,0,4-1.6,4-4v-89.6c0-0.8,0.8-59.2,36.8-67.2c7.2-1.6,12,0,16,4
		c6.4,7.2,6.4,20.8,1.6,34.4c-5.6,16-17.6,26.4-32.8,30.4v-20c0-2.4-1.6-4-4-4s-4,1.6-4,4v24.8c0,1.6,0.8,2.4,1.6,3.2
		s2.4,0.8,3.2,0.8c20-2.4,36.8-16.8,44-36.8c6.4-16.8,4.8-33.6-3.2-43.2c-5.6-6.4-14.4-8.8-24-6.4c-43.2,9.6-44,72.8-44,76V268
		C169.301,270.4,170.901,272,173.301,272z"/>
	<path style="fill:#F9F4BD;" d="M186.901,207.2c0,1.6-1.6,3.2-3.2,3.2h-20c-1.6,0-3.2-1.6-3.2-3.2l0,0c0-1.6,1.6-3.2,3.2-3.2h20
		C185.301,203.2,186.901,204.8,186.901,207.2L186.901,207.2z"/>
	<path style="fill:#F9F4BD;" d="M186.901,224c0,1.6-1.6,3.2-3.2,3.2h-20c-1.6,0-3.2-1.6-3.2-3.2l0,0c0-1.6,1.6-3.2,3.2-3.2h20
		C185.301,220.8,186.901,222.4,186.901,224L186.901,224z"/>
	<path style="fill:#F9F4BD;" d="M186.901,240.8c0,1.6-1.6,3.2-3.2,3.2h-20c-1.6,0-3.2-1.6-3.2-3.2l0,0c0-1.6,1.6-3.2,3.2-3.2h20
		C185.301,237.6,186.901,239.2,186.901,240.8L186.901,240.8z"/>
	<circle style="fill:#F9F4BD;" cx="173.301" cy="83.2" r="5.6"/>
</g>
<g>
	<path style="fill:#6FCAEF;" d="M234.901,290.4c0,0.8-0.8,1.6-1.6,1.6h-119.2c-0.8,0-1.6-0.8-1.6-1.6l0,0c0-0.8,0.8-1.6,1.6-1.6
		h119.2C234.101,288.8,234.901,289.6,234.901,290.4L234.901,290.4z"/>
	<path style="fill:#6FCAEF;" d="M234.901,302.4c0,0.8-0.8,1.6-1.6,1.6h-119.2c-0.8,0-1.6-0.8-1.6-1.6l0,0c0-0.8,0.8-1.6,1.6-1.6
		h119.2C234.101,300.8,234.901,301.6,234.901,302.4L234.901,302.4z"/>
	<path style="fill:#6FCAEF;" d="M234.901,314.4c0,0.8-0.8,1.6-1.6,1.6h-119.2c-0.8,0-1.6-0.8-1.6-1.6l0,0c0-0.8,0.8-1.6,1.6-1.6
		h119.2C234.101,312.8,234.901,313.6,234.901,314.4L234.901,314.4z"/>
	<path style="fill:#6FCAEF;" d="M234.901,327.2c0,0.8-0.8,1.6-1.6,1.6h-119.2c-0.8,0-1.6-0.8-1.6-1.6l0,0c0-0.8,0.8-1.6,1.6-1.6
		h119.2C234.101,325.6,234.901,325.6,234.901,327.2L234.901,327.2z"/>
	<path style="fill:#6FCAEF;" d="M226.101,339.2c0,0.8-0.8,1.6-1.6,1.6h-102.4c-0.8,0-1.6-0.8-1.6-1.6l0,0c0-0.8,0.8-1.6,1.6-1.6
		h103.2C226.101,337.6,226.101,338.4,226.101,339.2L226.101,339.2z"/>
	<circle style="fill:#6FCAEF;" cx="146.901" cy="354.4" r="2.4"/>
	<circle style="fill:#6FCAEF;" cx="164.501" cy="354.4" r="2.4"/>
	<circle style="fill:#6FCAEF;" cx="182.101" cy="354.4" r="2.4"/>
	<circle style="fill:#6FCAEF;" cx="199.701" cy="354.4" r="2.4"/>
</g>
<g>
</g>
<g>
</g>
<g>
</g>
<g>
</g>
<g>
</g>
<g>
</g>
<g>
</g>
<g>
</g>
<g>
</g>
<g>
</g>
<g>
</g>
<g>
</g>
<g>
</g>
<g>
</g>
<g>
</g>
</svg>
