<?xml version="1.0" encoding="iso-8859-1"?>
<!-- Generator: Adobe Illustrator 19.0.0, SVG Export Plug-In . SVG Version: 6.00 Build 0)  -->
<svg version="1.1" id="Layer_1" xmlns="http://www.w3.org/2000/svg" xmlns:xlink="http://www.w3.org/1999/xlink" x="0px" y="0px"
	 viewBox="0 0 511.956 511.956" style="enable-background:new 0 0 511.956 511.956;" xml:space="preserve">
<g>
	<g>
		<path d="M255.978,0C139.102,0,44.026,95.084,44.026,211.956s95.076,211.948,211.952,211.948
			c116.868,0,211.952-95.08,211.952-211.948S372.846,0,255.978,0z M255.978,366.576c-39.936,0-72.42-32.484-72.42-72.416
			s32.484-72.428,72.42-72.428c39.928,0,72.42,32.492,72.42,72.424S295.906,366.576,255.978,366.576z"/>
	</g>
</g>
<g>
	<g>
		<path d="M435.978,451.956h-6.344l-54.936-38.96c-34.272,22.072-75.016,34.928-118.72,34.928
			c-43.712,0-84.444-12.852-118.72-34.916l-54.936,38.948H75.97c-15.436,0-27.992,12.52-27.992,27.956v4
			c0,15.436,12.556,28.044,27.992,28.044h360.008c15.436,0,28-12.604,28-28.044v-4C463.978,464.476,451.414,451.956,435.978,451.956
			z"/>
	</g>
</g>
<g>
</g>
<g>
</g>
<g>
</g>
<g>
</g>
<g>
</g>
<g>
</g>
<g>
</g>
<g>
</g>
<g>
</g>
<g>
</g>
<g>
</g>
<g>
</g>
<g>
</g>
<g>
</g>
<g>
</g>
</svg>
